<svg id="Apple_Music_Logo" xmlns="http://www.w3.org/2000/svg" width="140" height="30.209" viewBox="0 0 140 30.209">
  <path id="Path_223" data-name="Path 223" d="M30.519,8.091H26.256V1.256h1.061v5.86h3.2Z" transform="translate(8.576 0.41)" fill="#a5a1a1"/>
  <path id="Path_224" data-name="Path 224" d="M30.393,1.524a.66.66,0,1,1,.658.621A.627.627,0,0,1,30.393,1.524Zm.152,1.525h1.014V8.208H30.545Z" transform="translate(9.927 0.294)" fill="#a5a1a1"/>
  <path id="Path_225" data-name="Path 225" d="M34.453,2.445c1.161,0,1.919.54,2.018,1.45H35.5c-.095-.378-.464-.621-1.042-.621s-1,.271-1,.672c0,.308.26.5.819.631l.858.2c.981.228,1.44.649,1.44,1.407,0,.972-.9,1.621-2.136,1.621s-2.028-.554-2.118-1.469h1.018a1.048,1.048,0,0,0,1.123.644c.635,0,1.085-.284,1.085-.7,0-.308-.242-.507-.758-.63l-.9-.209C32.9,5.212,32.45,4.771,32.45,4,32.45,3.09,33.288,2.445,34.453,2.445Z" transform="translate(10.556 0.799)" fill="#a5a1a1"/>
  <path id="Path_226" data-name="Path 226" d="M38.014,1.552V2.859h1.117v.858H38.014V6.37c0,.539.222.776.729.776a3.34,3.34,0,0,0,.388-.023V7.97a3.274,3.274,0,0,1-.554.053c-1.132,0-1.583-.4-1.583-1.393V3.717h-.819V2.859H37V1.552Z" transform="translate(11.816 0.507)" fill="#a5a1a1"/>
  <path id="Path_227" data-name="Path 227" d="M43.795,6.311A2.1,2.1,0,0,1,41.559,7.8c-1.478,0-2.382-1.014-2.382-2.662s.924-2.7,2.378-2.7c1.435,0,2.3.981,2.3,2.6V5.4H40.213v.057a1.362,1.362,0,0,0,1.374,1.477,1.236,1.236,0,0,0,1.227-.624ZM40.213,4.647h2.605a1.244,1.244,0,0,0-1.27-1.336A1.319,1.319,0,0,0,40.213,4.647Z" transform="translate(12.796 0.799)" fill="#a5a1a1"/>
  <path id="Path_228" data-name="Path 228" d="M43.727,2.544h.98v.82h.076a1.545,1.545,0,0,1,1.54-.92,1.678,1.678,0,0,1,1.786,1.919V7.7H47.091V4.62c0-.829-.36-1.241-1.114-1.241a1.183,1.183,0,0,0-1.231,1.307V7.7H43.727Z" transform="translate(14.283 0.799)" fill="#a5a1a1"/>
  <path id="Path_229" data-name="Path 229" d="M50.123,5.121a2.444,2.444,0,1,1,4.865,0,2.444,2.444,0,1,1-4.865,0Zm3.818,0c0-1.118-.5-1.771-1.384-1.771S51.175,4,51.175,5.121s.5,1.776,1.383,1.776S53.941,6.244,53.941,5.121Z" transform="translate(16.372 0.799)" fill="#a5a1a1"/>
  <path id="Path_230" data-name="Path 230" d="M54.813,2.544h.98v.82h.076a1.545,1.545,0,0,1,1.54-.92,1.678,1.678,0,0,1,1.786,1.919V7.7H58.177V4.62c0-.829-.36-1.241-1.114-1.241a1.183,1.183,0,0,0-1.231,1.307V7.7H54.813Z" transform="translate(17.904 0.799)" fill="#a5a1a1"/>
  <path id="Path_231" data-name="Path 231" d="M34.646,19.885H29.3l-1.283,3.789H25.755l5.062-14.02h2.351l5.062,14.02h-2.3Zm-4.79-1.749h4.236L32,11.986h-.058Z" transform="translate(8.413 3.153)" fill="#a5a1a1"/>
  <path id="Path_232" data-name="Path 232" d="M45.763,17.654c0,3.178-1.7,5.218-4.266,5.218a3.464,3.464,0,0,1-3.216-1.788h-.049v5.062h-2.1v-13.6h2.031v1.7H38.2a3.623,3.623,0,0,1,3.255-1.807C44.053,12.437,45.763,14.486,45.763,17.654Zm-2.157,0c0-2.069-1.069-3.429-2.7-3.429-1.6,0-2.682,1.389-2.682,3.429,0,2.06,1.079,3.44,2.682,3.44C42.537,21.094,43.606,19.744,43.606,17.654Z" transform="translate(11.803 4.062)" fill="#a5a1a1"/>
  <path id="Path_233" data-name="Path 233" d="M54.237,17.654c0,3.178-1.7,5.218-4.266,5.218a3.464,3.464,0,0,1-3.216-1.788h-.049v5.062h-2.1v-13.6h2.031v1.7h.039a3.623,3.623,0,0,1,3.255-1.807C52.527,12.437,54.237,14.486,54.237,17.654Zm-2.157,0c0-2.069-1.069-3.429-2.7-3.429-1.6,0-2.682,1.389-2.682,3.429,0,2.06,1.079,3.44,2.682,3.44C51.011,21.094,52.08,19.744,52.08,17.654Z" transform="translate(14.57 4.062)" fill="#a5a1a1"/>
  <path id="Path_234" data-name="Path 234" d="M53.141,9.654h2.1v14.02h-2.1Z" transform="translate(17.358 3.153)" fill="#a5a1a1"/>
  <path id="Path_235" data-name="Path 235" d="M65.225,19.768c-.282,1.855-2.089,3.129-4.4,3.129C57.85,22.9,56,20.9,56,17.708s1.856-5.286,4.732-5.286c2.828,0,4.606,1.943,4.606,5.042v.719H58.122v.127a2.662,2.662,0,0,0,2.75,2.9,2.314,2.314,0,0,0,2.361-1.438Zm-7.093-3.051h5.111a2.458,2.458,0,0,0-2.507-2.595A2.588,2.588,0,0,0,58.132,16.717Z" transform="translate(18.293 4.058)" fill="#a5a1a1"/>
  <path id="Path_236" data-name="Path 236" d="M79.69,23.674V13.355h-.067L75.395,23.568H73.782L69.546,13.355h-.067V23.674H67.5V9.654h2.516L74.55,20.72h.078L79.156,9.654h2.526v14.02Z" transform="translate(22.047 3.153)" fill="#a5a1a1"/>
  <path id="Path_237" data-name="Path 237" d="M88.783,22.739H86.772V20.981h-.049a3.193,3.193,0,0,1-3.168,1.875c-2.224,0-3.585-1.438-3.585-3.779V12.517h2.1v6.151c0,1.555.738,2.38,2.186,2.38a2.368,2.368,0,0,0,2.429-2.643V12.517h2.1Z" transform="translate(26.121 4.088)" fill="#a5a1a1"/>
  <path id="Path_238" data-name="Path 238" d="M92.163,12.429c2.263,0,3.887,1.254,3.935,3.061H94.125c-.088-.9-.855-1.457-2.021-1.457-1.137,0-1.9.525-1.9,1.321,0,.611.505,1.02,1.565,1.283l1.719.4c2.06.5,2.837,1.254,2.837,2.75,0,1.846-1.749,3.109-4.245,3.109-2.41,0-4.033-1.235-4.188-3.1h2.079c.146.982.933,1.507,2.206,1.507,1.253,0,2.04-.516,2.04-1.332,0-.631-.389-.972-1.457-1.244l-1.827-.447c-1.846-.447-2.779-1.389-2.779-2.807C88.159,13.664,89.781,12.429,92.163,12.429Z" transform="translate(28.71 4.06)" fill="#a5a1a1"/>
  <path id="Path_239" data-name="Path 239" d="M95.486,10.785A1.219,1.219,0,1,1,96.7,11.98,1.2,1.2,0,0,1,95.486,10.785Zm.165,2.691h2.1V23.7h-2.1Z" transform="translate(31.189 3.129)" fill="#a5a1a1"/>
  <path id="Path_240" data-name="Path 240" d="M105.787,16.065a2.259,2.259,0,0,0-2.41-1.885c-1.613,0-2.682,1.351-2.682,3.479,0,2.177,1.078,3.489,2.7,3.489a2.2,2.2,0,0,0,2.39-1.837h2.021c-.233,2.148-1.954,3.586-4.431,3.586-2.915,0-4.819-1.993-4.819-5.238,0-3.177,1.9-5.237,4.8-5.237a4.109,4.109,0,0,1,4.431,3.643Z" transform="translate(32.192 4.058)" fill="#a5a1a1"/>
  <path id="Path_241" data-name="Path 241" d="M27.827,3.783A6.009,6.009,0,0,0,24.013.361,12.361,12.361,0,0,0,20.582,0H7.807A12.361,12.361,0,0,0,4.376.361,6.009,6.009,0,0,0,.562,3.783,11.127,11.127,0,0,0,0,7.807V20.582a11.127,11.127,0,0,0,.562,4.024,6.009,6.009,0,0,0,3.814,3.422,12.361,12.361,0,0,0,3.431.361H20.582a12.361,12.361,0,0,0,3.431-.361,6.009,6.009,0,0,0,3.814-3.422,11.127,11.127,0,0,0,.561-4.024V7.807A11.127,11.127,0,0,0,27.827,3.783ZM20.709,19.525a2.632,2.632,0,0,1-.414.974,2.476,2.476,0,0,1-.777.718,3.1,3.1,0,0,1-.986.359,3.773,3.773,0,0,1-1.522.077,2.12,2.12,0,0,1-1.024-.52,2.207,2.207,0,0,1-.112-3.17,2.461,2.461,0,0,1,.921-.592,9.632,9.632,0,0,1,1.562-.4l.551-.111a.956.956,0,0,0,.616-.314,1.03,1.03,0,0,0,.171-.7V9.594c0-.478-.215-.609-.671-.521-.327.064-7.34,1.478-7.34,1.478-.4.1-.535.225-.535.716v9.167a4.828,4.828,0,0,1-.094,1.038,2.633,2.633,0,0,1-.414.974,2.475,2.475,0,0,1-.777.718,3.106,3.106,0,0,1-.986.364,3.773,3.773,0,0,1-1.522.077,2.127,2.127,0,0,1-1.024-.525,2.246,2.246,0,0,1-.112-3.17,2.46,2.46,0,0,1,.921-.592,9.634,9.634,0,0,1,1.562-.4l.551-.111a.956.956,0,0,0,.616-.314,1.034,1.034,0,0,0,.186-.7V7.245a1.862,1.862,0,0,1,.02-.285.858.858,0,0,1,.284-.548,1.178,1.178,0,0,1,.526-.237h0l8.438-1.7c.073-.015.683-.123.752-.129.456-.039.712.26.712.746V18.482A4.856,4.856,0,0,1,20.709,19.525Z" fill="#a5a1a1"/>
</svg>
