<?xml version="1.0" encoding="utf-8"?>
<!-- Generator: Adobe Illustrator 25.2.1, SVG Export Plug-In . SVG Version: 6.00 Build 0)  -->
<svg version="1.1" id="Layer_1" xmlns="http://www.w3.org/2000/svg" xmlns:xlink="http://www.w3.org/1999/xlink" x="0px" y="0px"
	 viewBox="0 0 82.9 12.6" style="enable-background:new 0 0 82.9 12.6;" xml:space="preserve">
<style type="text/css">
	.st0{fill:#FFFFFF;stroke:#FFFFFF;stroke-width:0.25;stroke-miterlimit:10;}
	.st1{fill:none;stroke:#FFFFFF;stroke-miterlimit:10;}
</style>
<g>
	<path class="st0" d="M15.6,10.8h-0.8L13.8,4l-2.5,5.4h-0.4L8.3,4l-1.1,6.8H6.4l1.4-8.6h0.5L11,8.1l2.8-5.9h0.5L15.6,10.8z"/>
	<path class="st0" d="M17.2,10.8V2.2h0.8v8.6H17.2z"/>
	<path class="st0" d="M20.6,2.2v7.9h5.3v0.8h-6V2.2H20.6z"/>
	<path class="st0" d="M33.2,2.2V3h-5.3v3.2h4.4v0.8h-4.4v3.2h5.4v0.8h-6.2V2.2H33.2z"/>
	<path class="st0" d="M37.6,2.1c1.1,0,2.1,0.5,2.8,1.3l-0.6,0.5c-0.5-0.7-1.3-1-2.2-1C37,2.9,36.4,3,36,3.3
		c-0.3,0.2-0.6,0.5-0.6,0.9c0,0.3,0.1,0.7,0.4,0.9c0.4,0.3,0.9,0.6,1.4,0.8l1.1,0.5c0.6,0.2,1.1,0.6,1.6,1c0.4,0.4,0.7,0.9,0.7,1.5
		c0,0.6-0.3,1.2-0.8,1.6c-0.6,0.4-1.4,0.6-2.1,0.6c-1.2,0-2.4-0.5-3.3-1.4L34.9,9c0.7,0.7,1.7,1.1,2.7,1.1c0.6,0,1.2-0.1,1.7-0.4
		c0.4-0.2,0.6-0.6,0.5-1c0-0.3-0.2-0.7-0.4-0.9c-0.4-0.3-0.8-0.6-1.3-0.8l-1.1-0.5c-0.6-0.2-1.1-0.5-1.6-0.9
		c-0.4-0.4-0.7-0.9-0.7-1.4c0-0.6,0.4-1.2,0.9-1.5C36.2,2.3,36.9,2.1,37.6,2.1z"/>
	<path class="st0" d="M44.7,2.2h3c1.1,0,2.2,0.4,3.1,1.1c0.9,0.8,1.3,2,1.3,3.2c0,1.2-0.4,2.4-1.3,3.2c-0.9,0.7-2,1.1-3.1,1.1h-3
		L44.7,2.2z M45.4,10.1h2.2c0.9,0,1.9-0.3,2.6-0.9c0.7-0.7,1.1-1.6,1.1-2.6c0-1-0.3-2-1.1-2.6c-0.7-0.6-1.6-0.9-2.6-0.9h-2.2V10.1z"
		/>
	<path class="st0" d="M56.3,2.2l4,8.6h-0.8l-1-2.2h-4.7l-1,2.2H52l4-8.6H56.3z M54.1,7.9h4l-2-4.4L54.1,7.9z"/>
	<path class="st0" d="M59.6,2.2l3.3,7.4l3.3-7.4h0.8l-3.9,8.6h-0.4l-3.9-8.6H59.6z"/>
	<path class="st0" d="M68.3,10.8V2.2h0.8v8.6H68.3z"/>
	<path class="st0" d="M73.7,2.1c1.1,0,2.1,0.5,2.8,1.3l-0.6,0.5c-0.5-0.7-1.3-1-2.2-1c-0.6,0-1.1,0.1-1.6,0.4
		c-0.5,0.3-0.7,0.9-0.4,1.4c0.1,0.1,0.2,0.2,0.3,0.3c0.4,0.3,0.9,0.6,1.4,0.8l1.1,0.5c0.6,0.2,1.1,0.6,1.6,1
		c0.4,0.4,0.7,0.9,0.7,1.5c0,0.6-0.3,1.2-0.8,1.6c-0.6,0.4-1.4,0.6-2.1,0.6c-1.2,0-2.4-0.4-3.2-1.3L71,9.1c0.7,0.7,1.7,1.1,2.7,1.1
		c0.6,0,1.1-0.2,1.6-0.5c0.3-0.2,0.5-0.6,0.5-1c0-0.4-0.2-0.7-0.4-0.9C75,7.5,74.6,7.2,74.1,7L73,6.5c-0.6-0.2-1.1-0.5-1.6-0.9
		c-0.4-0.4-0.7-0.9-0.7-1.4c0-0.6,0.4-1.2,0.9-1.5C72.2,2.3,72.9,2.1,73.7,2.1z"/>
</g>
<path class="st1" d="M76.6,12.1H6.3c-3.2,0-5.8-2.6-5.8-5.8v0c0-3.2,2.6-5.8,5.8-5.8h70.3c3.2,0,5.8,2.6,5.8,5.8v0
	C82.4,9.5,79.8,12.1,76.6,12.1z"/>
</svg>
