<svg xmlns="http://www.w3.org/2000/svg" width="120.893" height="36.258" viewBox="0 0 120.893 36.258">
  <path id="Spotify_logo_with_text" d="M18.382.277a18.129,18.129,0,1,0,18.13,18.129A18.129,18.129,0,0,0,18.382.277h0ZM26.7,26.424a1.129,1.129,0,0,1-1.554.375c-4.257-2.6-9.615-3.189-15.926-1.747a1.13,1.13,0,0,1-.5-2.2c6.906-1.578,12.83-.9,17.609,2.022A1.13,1.13,0,0,1,26.7,26.424Zm2.219-4.936a1.414,1.414,0,0,1-1.944.466c-4.873-3-12.3-3.863-18.066-2.113a1.413,1.413,0,1,1-.821-2.7A26.449,26.449,0,0,1,28.45,19.545a1.413,1.413,0,0,1,.465,1.943Zm.191-5.14c-5.843-3.471-15.483-3.79-21.062-2.1a1.7,1.7,0,1,1-.984-3.245c6.4-1.944,17.05-1.568,23.777,2.425a1.7,1.7,0,1,1-1.73,2.917Zm20.471.665c-3.13-.746-3.687-1.27-3.687-2.371,0-1.04.979-1.74,2.435-1.74A7.115,7.115,0,0,1,52.6,14.527a.207.207,0,0,0,.29-.046l1.528-2.154a.206.206,0,0,0-.039-.279,9.248,9.248,0,0,0-6.012-2.083c-3.379,0-5.741,2.028-5.741,4.93,0,3.112,2.037,4.214,5.557,5.065,2.994.69,3.5,1.268,3.5,2.3,0,1.145-1.022,1.857-2.667,1.857a7.2,7.2,0,0,1-4.986-2.059.212.212,0,0,0-.149-.05.2.2,0,0,0-.141.071L42.03,24.121a.206.206,0,0,0,.019.286,10.216,10.216,0,0,0,6.9,2.645c3.641,0,5.995-1.99,5.995-5.07.007-2.6-1.55-4.039-5.362-4.966l-.006,0Zm13.608-3.087a4.916,4.916,0,0,0-3.942,1.9V14.388a.2.2,0,0,0-.2-.205h-2.8a.2.2,0,0,0-.2.205V30.321a.205.205,0,0,0,.2.206h2.8a.205.205,0,0,0,.2-.206V25.292a5.043,5.043,0,0,0,3.942,1.784c2.933,0,5.9-2.258,5.9-6.575s-2.966-6.576-5.9-6.576h0ZM65.829,20.5c0,2.2-1.353,3.732-3.293,3.732A3.483,3.483,0,0,1,59.174,20.5a3.483,3.483,0,0,1,3.362-3.732c1.907,0,3.293,1.569,3.293,3.732ZM76.7,13.926A6.589,6.589,0,1,0,83.412,20.5,6.609,6.609,0,0,0,76.7,13.926Zm0,10.33A3.566,3.566,0,0,1,73.174,20.5a3.481,3.481,0,0,1,3.479-3.709A3.575,3.575,0,0,1,80.2,20.547,3.49,3.49,0,0,1,76.7,24.255Zm14.78-10.073H88.394V11.029a.2.2,0,0,0-.2-.205h-2.8a.206.206,0,0,0-.206.205v3.153H83.834a.2.2,0,0,0-.2.205V16.8a.2.2,0,0,0,.2.205h1.347v6.234c0,2.518,1.253,3.8,3.728,3.8a5.106,5.106,0,0,0,2.624-.654.2.2,0,0,0,.1-.178V23.9a.2.2,0,0,0-.1-.173.2.2,0,0,0-.2-.009,3.539,3.539,0,0,1-1.645.4c-.9,0-1.3-.409-1.3-1.323V17h3.085a.2.2,0,0,0,.2-.205V14.389a.2.2,0,0,0-.2-.205h0Zm10.746.012v-.387c0-1.139.437-1.647,1.416-1.647a4.736,4.736,0,0,1,1.58.291.2.2,0,0,0,.268-.2V9.894a.2.2,0,0,0-.145-.2,7.679,7.679,0,0,0-2.329-.335c-2.587,0-3.957,1.458-3.957,4.214v.593H97.711a.206.206,0,0,0-.206.205V16.8a.207.207,0,0,0,.206.205h1.347v9.613a.206.206,0,0,0,.206.206h2.8a.2.2,0,0,0,.206-.206V17h2.617l4.009,9.613c-.455,1.009-.9,1.21-1.513,1.21a3.218,3.218,0,0,1-1.546-.439.223.223,0,0,0-.162-.015.2.2,0,0,0-.121.11l-.95,2.085a.2.2,0,0,0,.089.266,5.9,5.9,0,0,0,2.992.766c2.07,0,3.215-.966,4.222-3.559l4.862-12.564a.205.205,0,0,0-.188-.28h-2.918a.205.205,0,0,0-.195.138l-2.99,8.537L107.2,14.327a.2.2,0,0,0-.191-.132h-4.789Zm-6.231-.012h-2.8a.206.206,0,0,0-.206.205V26.615a.206.206,0,0,0,.206.206h2.8a.206.206,0,0,0,.206-.206V14.388a.2.2,0,0,0-.206-.205h0ZM94.609,8.614a2.01,2.01,0,1,0,2.009,2.009A2.01,2.01,0,0,0,94.609,8.614Zm24.554,9.5a1.978,1.978,0,1,1,1.983-1.984,1.965,1.965,0,0,1-1.983,1.984Zm.011-3.759a1.781,1.781,0,1,0,1.764,1.775,1.764,1.764,0,0,0-1.764-1.775Zm.437,1.978.559.781H119.7l-.5-.717h-.431v.717h-.394v-2.07h.922c.483,0,.8.246.8.661a.615.615,0,0,1-.478.629Zm-.333-.934h-.513v.655h.513c.255,0,.409-.125.409-.328S119.533,15.4,119.278,15.4Z" transform="translate(-0.253 -0.277)" fill="#a5a1a1"/>
</svg>
