<svg xmlns="http://www.w3.org/2000/svg" xmlns:xlink="http://www.w3.org/1999/xlink" width="42.332" height="42.332" viewBox="0 0 42.332 42.332">
  <defs>
    <clipPath id="clip-path">
      <rect id="Rectangle_1130" data-name="Rectangle 1130" width="42.332" height="42.332" transform="translate(885 6365)" fill="#a5a1a1" stroke="#707070" stroke-width="1"/>
    </clipPath>
  </defs>
  <g id="Mask_Group_2" data-name="Mask Group 2" transform="translate(-885 -6365)" clip-path="url(#clip-path)">
    <path id="iconmonstr-twitter-5" d="M21.166,3.528A17.638,17.638,0,1,1,3.528,21.166,17.658,17.658,0,0,1,21.166,3.528Zm0-3.528A21.166,21.166,0,1,0,42.332,21.166,21.167,21.167,0,0,0,21.166,0ZM32.631,15.483a8.692,8.692,0,0,1-2.494.684,4.362,4.362,0,0,0,1.91-2.4,8.689,8.689,0,0,1-2.759,1.053,4.344,4.344,0,0,0-7.4,3.96,12.334,12.334,0,0,1-8.95-4.537,4.349,4.349,0,0,0,1.344,5.8,4.334,4.334,0,0,1-1.965-.543A4.348,4.348,0,0,0,15.8,23.808a4.352,4.352,0,0,1-1.961.074A4.348,4.348,0,0,0,17.9,26.9a8.739,8.739,0,0,1-6.433,1.8,12.35,12.35,0,0,0,19-10.968A8.754,8.754,0,0,0,32.631,15.483Z" transform="translate(885 6365)" fill="#a5a1a1"/>
  </g>
</svg>
